<svg width="74" height="85" viewBox="0 0 74 85" fill="none" xmlns="http://www.w3.org/2000/svg">
<path d="M58.8106 36.5575C58.8106 24.2672 48.8376 14.3039 36.5352 14.3037C24.2354 14.3035 14.285 24.2226 14.2596 36.5103C14.244 44.0595 17.9914 50.7346 23.7327 54.7694C27.2099 57.2132 29.2527 61.2173 29.2527 65.4644V65.5157H43.8175V65.4649C43.8175 61.1693 45.9478 57.1835 49.4494 54.6904C55.1154 50.6563 58.8106 44.0383 58.8106 36.5575Z" fill="#FEDF30"/>
<path d="M36.5352 14.3042C35.6923 14.3042 34.8609 14.3523 34.0425 14.4432C45.1736 15.6793 53.8301 25.1079 53.8301 36.5578C53.8301 44.0386 50.1349 50.6566 44.4689 54.6907C40.9673 57.184 38.837 61.1696 38.837 65.4653V65.5161H43.8174V65.4653C43.8174 61.1696 45.9477 57.1838 49.4493 54.6907C55.1154 50.6566 58.8105 44.0386 58.8105 36.5578C58.8105 24.2676 48.8375 14.3044 36.5352 14.3042Z" fill="#FAC600"/>
<path d="M39.9089 83.7543H33.1614C32.3731 83.7543 31.7341 83.1153 31.7341 82.3271V78.354H41.3361V82.3271C41.3361 83.1153 40.6971 83.7543 39.9089 83.7543Z" fill="#BAAFB9"/>
<path d="M36.3557 78.354V82.3271C36.3557 83.1153 35.7167 83.7543 34.9285 83.7543H39.9089C40.6971 83.7543 41.3361 83.1153 41.3361 82.3271V78.354H36.3557Z" fill="#AA9EA9"/>
<path d="M35.7489 51.9459L28.5985 44.7978C24.0342 40.235 24.0342 32.8358 28.5985 28.273L35.7489 21.1249C36.1832 20.6908 36.8871 20.6908 37.3214 21.1249L44.4718 28.273C49.036 32.8358 49.036 40.235 44.4718 44.7978L37.3214 51.9459C36.8871 52.38 36.1832 52.38 35.7489 51.9459Z" fill="#22B37F"/>
<path d="M43.8176 71.9349H29.2528C28.0697 71.9349 27.1108 70.9768 27.1108 69.7952V67.6554C27.1108 66.4737 28.0697 65.5156 29.2528 65.5156H43.8176C45.0004 65.5156 45.9595 66.4737 45.9595 67.6554V69.7952C45.9595 70.9768 45.0004 71.9349 43.8176 71.9349Z" fill="#BAAFB9"/>
<path d="M43.8195 65.5156H40.9789C40.9789 67.6856 39.2198 69.4447 37.0498 69.4447H27.1108V69.793C27.1108 70.9759 28.0697 71.9349 29.2528 71.9349H43.8176C45.0004 71.9349 45.9595 70.976 45.9595 69.793V67.6554C45.9593 66.4735 45.0012 65.5156 43.8195 65.5156Z" fill="#AA9EA9"/>
<path d="M43.8176 78.3543H29.2528C28.0697 78.3543 27.1108 77.3963 27.1108 76.2146V74.0748C27.1108 72.8931 28.0697 71.9351 29.2528 71.9351H43.8176C45.0004 71.9351 45.9595 72.8931 45.9595 74.0748V76.2146C45.9595 77.3964 45.0004 78.3543 43.8176 78.3543Z" fill="#BAAFB9"/>
<path d="M43.8195 71.9351H40.9789C40.9789 74.105 39.2198 75.8641 37.0498 75.8641H27.1108V76.2124C27.1108 77.3953 28.0697 78.3543 29.2528 78.3543H43.8176C45.0004 78.3543 45.9595 77.3954 45.9595 76.2124V74.0748C45.9593 72.8931 45.0012 71.9351 43.8195 71.9351Z" fill="#AA9EA9"/>
<path d="M20.7897 11.7535C21.1368 12.3553 21.9036 12.5479 22.4905 12.2092C23.086 11.8654 23.29 11.1039 22.9462 10.5084L19.9684 5.35049C19.6246 4.75483 18.8629 4.55079 18.2676 4.89478C17.6721 5.23859 17.4681 6.0001 17.8119 6.5956L20.7897 11.7535ZM7.20089 35.2899H1.24511C0.557477 35.2899 0 35.8474 0 36.535C0 37.2226 0.557477 37.7801 1.24511 37.7801H7.20089C7.88852 37.7801 8.446 37.2226 8.446 36.535C8.446 35.8474 7.88852 35.2899 7.20089 35.2899ZM36.535 8.446C37.2226 8.446 37.7801 7.88852 37.7801 7.20089V1.24511C37.7801 0.557477 37.2226 0 36.535 0C35.8474 0 35.2899 0.557477 35.2899 1.24511V7.20089C35.2899 7.88852 35.8474 8.446 36.535 8.446ZM50.5795 12.2092C51.1651 12.5472 51.933 12.3555 52.2803 11.7535L55.2583 6.5956C55.6021 6.0001 55.3981 5.23859 54.8026 4.89478C54.2071 4.55063 53.4456 4.75499 53.1018 5.35049L50.1238 10.5084C49.7798 11.1039 49.9839 11.8654 50.5795 12.2092ZM71.8249 35.2899H65.8691C65.1815 35.2899 64.624 35.8474 64.624 36.535C64.624 37.2226 65.1815 37.7801 65.8691 37.7801H71.8249C72.5126 37.7801 73.07 37.2226 73.07 36.535C73.07 35.8474 72.5126 35.2899 71.8249 35.2899ZM68.1752 18.2674C67.8314 17.6719 67.0701 17.4679 66.4744 17.8117L61.3165 20.7897C60.721 21.1335 60.517 21.895 60.8608 22.4905C61.2081 23.0921 61.9753 23.2857 62.5616 22.9462L67.7195 19.9682C68.315 19.6244 68.5191 18.8631 68.1752 18.2674ZM36.5352 13.0584C36.5348 13.0584 36.535 13.0584 36.5345 13.0584C33.513 13.0584 30.5714 13.6212 27.7923 14.731C27.1537 14.986 26.8427 15.7105 27.0977 16.3491C27.3527 16.9878 28.0767 17.2987 28.7159 17.0437C31.2001 16.0516 33.8306 15.5488 36.5345 15.5488H36.5352C48.1313 15.5489 57.5654 24.9734 57.5654 36.5573C57.5654 43.3361 54.2614 49.7357 48.727 53.676C45.2056 56.1832 42.982 60.079 42.6244 64.2706H37.7801V53.1576C37.9295 53.0648 38.0718 52.956 38.2015 52.8264L45.352 45.6783C47.7948 43.2364 49.1402 39.9893 49.1402 36.5353C49.1402 33.0812 47.7948 29.8343 45.352 27.3923L38.2016 20.2443C37.2826 19.3254 35.7874 19.3254 34.8686 20.2443L27.7181 27.3924C25.2754 29.8343 23.93 33.0814 23.93 36.5355C23.93 39.9894 25.2754 43.2365 27.7181 45.6784L34.8686 52.8265C34.9982 52.9562 35.1405 53.0651 35.2899 53.1577V64.2708H30.4471C30.0976 60.0541 27.9117 56.1847 24.4485 53.7509C18.8339 49.8051 15.4903 43.361 15.5044 36.5131C15.5187 29.5665 18.9564 23.0868 24.7002 19.1797C25.2688 18.7929 25.4162 18.0184 25.0294 17.45C24.6427 16.8815 23.8683 16.7339 23.2997 17.1208C16.8754 21.4908 13.0303 28.7383 13.0142 36.508C12.9983 44.168 16.7376 51.3757 23.0166 55.7884C25.8867 57.8055 27.6932 61.0213 27.9692 64.5249C26.7363 65.0314 25.8654 66.2433 25.8654 67.6558V69.7955C25.8654 70.6067 26.153 71.3518 26.6307 71.9353C26.153 72.5189 25.8654 73.2639 25.8654 74.0751V76.2148C25.8654 78.0813 27.3848 79.5997 29.2524 79.5997H30.4888V82.3277C30.4888 83.8012 31.6875 85 33.1611 85H39.9086C41.3821 85 42.5809 83.8012 42.5809 82.3277V79.5997H43.8172C45.6849 79.5997 47.2041 78.0813 47.2041 76.2148V74.0751C47.2041 73.2639 46.9166 72.5189 46.4388 71.9353C46.9166 71.3516 47.2041 70.6067 47.2041 69.7955V67.6558C47.2041 66.2438 46.3339 65.0323 45.1019 64.5254C45.3859 61.0416 47.2348 57.7955 50.1711 55.7049C56.3603 51.2984 60.0555 44.1405 60.0555 36.5576C60.0556 23.6 49.5046 13.0585 36.5352 13.0584ZM29.4786 43.9169C27.5063 41.9453 26.4202 39.3237 26.4202 36.535C26.4202 33.7463 27.5063 31.1248 29.4786 29.1532L36.535 22.099L43.5915 29.153C45.5635 31.1246 46.6498 33.7461 46.6498 36.5348C46.6498 39.3234 45.5635 41.9451 43.5915 43.9167L37.7801 49.7262V44.5851L40.6547 41.7113C41.1411 41.2251 41.1411 40.4369 40.655 39.9506C40.1687 39.4642 39.3805 39.464 38.8942 39.9503L37.7801 41.0641V39.5815L40.6547 36.7078C41.1411 36.2216 41.1411 35.4333 40.655 34.9471C40.1687 34.4607 39.3805 34.4607 38.8942 34.9468L37.7801 36.0604V33.1993C37.7801 32.5116 37.2226 31.9542 36.535 31.9542C35.8474 31.9542 35.2899 32.5116 35.2899 33.1993V37.7283L34.1758 36.6145C33.6895 36.1284 32.9011 36.1284 32.415 36.6149C31.9289 37.1011 31.9289 37.8895 32.4154 38.3756L35.2899 41.2493V42.732L34.1758 41.6182C33.6895 41.1321 32.9011 41.1321 32.415 41.6185C31.9289 42.1048 31.9289 42.8932 32.4154 43.3793L35.2899 46.253V49.7262L29.4786 43.9169ZM40.0909 82.3272C40.0909 82.4276 40.0092 82.5093 39.9088 82.5093H33.1613C33.0608 82.5093 32.9791 82.4276 32.9791 82.3272V79.5992H40.0909V82.3272ZM44.7142 69.7951C44.7142 70.2885 44.312 70.6897 43.8176 70.6897H41.5154C40.8278 70.6897 40.2703 71.2472 40.2703 71.9348C40.2703 72.6224 40.8278 73.1799 41.5154 73.1799H43.8174C44.312 73.1799 44.7141 73.5812 44.7141 74.0746V76.2143C44.7141 76.7077 44.3118 77.109 43.8174 77.109H29.2526C28.7581 77.109 28.3558 76.7077 28.3558 76.2143V74.0746C28.3558 73.5813 28.7581 73.1799 29.2526 73.1799H36.535C37.2226 73.1799 37.7801 72.6224 37.7801 71.9348C37.7801 71.2472 37.2226 70.6897 36.535 70.6897H29.2526C28.7581 70.6897 28.3558 70.2885 28.3558 69.7951V67.6553C28.3558 67.1619 28.7581 66.7606 29.2526 66.7606H43.8174C44.312 66.7606 44.7141 67.1619 44.7141 67.6553V69.7951H44.7142ZM11.7535 20.7897L6.5956 17.8117C6.0001 17.4677 5.23859 17.6719 4.89478 18.2674C4.55096 18.8629 4.75499 19.6244 5.35049 19.9682L10.5084 22.9462C11.0936 23.2849 11.8617 23.0923 12.2092 22.4905C12.553 21.8948 12.349 21.1333 11.7535 20.7897Z" fill="black"/>
</svg>
